<mxfile host="app.diagrams.net" modified="2023-03-01T07:32:25.452Z" agent="5.0 (Macintosh; Intel Mac OS X 10_15_7) AppleWebKit/605.1.15 (KHTML, like Gecko) Version/16.2 Safari/605.1.15" etag="sjzuED9NgLpj1uqr2baC" version="20.8.5" type="github">
  <diagram id="C5RBs43oDa-KdzZeNtuy" name="Page-1">
    <mxGraphModel dx="855" dy="532" grid="0" gridSize="10" guides="1" tooltips="1" connect="1" arrows="1" fold="1" page="1" pageScale="1" pageWidth="827" pageHeight="1169" math="0" shadow="0">
      <root>
        <mxCell id="WIyWlLk6GJQsqaUBKTNV-0" />
        <mxCell id="WIyWlLk6GJQsqaUBKTNV-1" parent="WIyWlLk6GJQsqaUBKTNV-0" />
        <mxCell id="WIyWlLk6GJQsqaUBKTNV-2" value="" style="rounded=0;html=1;jettySize=auto;orthogonalLoop=1;fontSize=11;endArrow=block;endFill=0;endSize=8;strokeWidth=1;shadow=0;labelBackgroundColor=none;edgeStyle=orthogonalEdgeStyle;" parent="WIyWlLk6GJQsqaUBKTNV-1" source="WIyWlLk6GJQsqaUBKTNV-3" edge="1">
          <mxGeometry relative="1" as="geometry">
            <mxPoint x="220" y="170" as="targetPoint" />
          </mxGeometry>
        </mxCell>
        <mxCell id="WIyWlLk6GJQsqaUBKTNV-3" value="前端访问" style="rounded=1;whiteSpace=wrap;html=1;fontSize=12;glass=0;strokeWidth=1;shadow=0;" parent="WIyWlLk6GJQsqaUBKTNV-1" vertex="1">
          <mxGeometry x="160" y="80" width="120" height="40" as="geometry" />
        </mxCell>
        <mxCell id="WIyWlLk6GJQsqaUBKTNV-11" value="结束" style="rounded=1;whiteSpace=wrap;html=1;fontSize=12;glass=0;strokeWidth=1;shadow=0;" parent="WIyWlLk6GJQsqaUBKTNV-1" vertex="1">
          <mxGeometry x="160" y="420" width="120" height="40" as="geometry" />
        </mxCell>
        <mxCell id="06q5QGeV-AQgwvZja3uY-4" value="" style="edgeStyle=orthogonalEdgeStyle;rounded=0;orthogonalLoop=1;jettySize=auto;html=1;endArrow=block;endFill=0;" edge="1" parent="WIyWlLk6GJQsqaUBKTNV-1" source="06q5QGeV-AQgwvZja3uY-0" target="06q5QGeV-AQgwvZja3uY-3">
          <mxGeometry relative="1" as="geometry" />
        </mxCell>
        <mxCell id="06q5QGeV-AQgwvZja3uY-0" value="请求flask http服务" style="rounded=1;whiteSpace=wrap;html=1;fontSize=12;glass=0;strokeWidth=1;shadow=0;" vertex="1" parent="WIyWlLk6GJQsqaUBKTNV-1">
          <mxGeometry x="160" y="170" width="120" height="40" as="geometry" />
        </mxCell>
        <mxCell id="06q5QGeV-AQgwvZja3uY-6" value="" style="edgeStyle=orthogonalEdgeStyle;rounded=0;orthogonalLoop=1;jettySize=auto;html=1;endArrow=block;endFill=0;entryX=0;entryY=0.5;entryDx=0;entryDy=0;exitX=1;exitY=0.25;exitDx=0;exitDy=0;" edge="1" parent="WIyWlLk6GJQsqaUBKTNV-1" source="06q5QGeV-AQgwvZja3uY-3" target="06q5QGeV-AQgwvZja3uY-5">
          <mxGeometry relative="1" as="geometry" />
        </mxCell>
        <mxCell id="06q5QGeV-AQgwvZja3uY-8" value="" style="edgeStyle=orthogonalEdgeStyle;rounded=0;orthogonalLoop=1;jettySize=auto;html=1;endArrow=block;endFill=0;" edge="1" parent="WIyWlLk6GJQsqaUBKTNV-1" source="06q5QGeV-AQgwvZja3uY-3" target="06q5QGeV-AQgwvZja3uY-7">
          <mxGeometry relative="1" as="geometry" />
        </mxCell>
        <mxCell id="06q5QGeV-AQgwvZja3uY-3" value="根据请求，路由选择" style="rounded=1;whiteSpace=wrap;html=1;fontSize=12;glass=0;strokeWidth=1;shadow=0;" vertex="1" parent="WIyWlLk6GJQsqaUBKTNV-1">
          <mxGeometry x="160" y="260" width="120" height="40" as="geometry" />
        </mxCell>
        <mxCell id="06q5QGeV-AQgwvZja3uY-13" value="" style="edgeStyle=orthogonalEdgeStyle;rounded=0;orthogonalLoop=1;jettySize=auto;html=1;endArrow=block;endFill=0;" edge="1" parent="WIyWlLk6GJQsqaUBKTNV-1" source="06q5QGeV-AQgwvZja3uY-5" target="06q5QGeV-AQgwvZja3uY-12">
          <mxGeometry relative="1" as="geometry" />
        </mxCell>
        <mxCell id="06q5QGeV-AQgwvZja3uY-5" value="读取zabbix监控api" style="rounded=1;whiteSpace=wrap;html=1;fontSize=12;glass=0;strokeWidth=1;shadow=0;" vertex="1" parent="WIyWlLk6GJQsqaUBKTNV-1">
          <mxGeometry x="360" y="230" width="120" height="40" as="geometry" />
        </mxCell>
        <mxCell id="06q5QGeV-AQgwvZja3uY-14" style="edgeStyle=orthogonalEdgeStyle;rounded=0;orthogonalLoop=1;jettySize=auto;html=1;entryX=1;entryY=0.25;entryDx=0;entryDy=0;endArrow=block;endFill=0;" edge="1" parent="WIyWlLk6GJQsqaUBKTNV-1" source="06q5QGeV-AQgwvZja3uY-7" target="06q5QGeV-AQgwvZja3uY-9">
          <mxGeometry relative="1" as="geometry">
            <Array as="points">
              <mxPoint x="420" y="350" />
            </Array>
          </mxGeometry>
        </mxCell>
        <mxCell id="06q5QGeV-AQgwvZja3uY-7" value="获取数据库数据" style="rounded=1;whiteSpace=wrap;html=1;fontSize=12;glass=0;strokeWidth=1;shadow=0;" vertex="1" parent="WIyWlLk6GJQsqaUBKTNV-1">
          <mxGeometry x="360" y="280" width="120" height="40" as="geometry" />
        </mxCell>
        <mxCell id="06q5QGeV-AQgwvZja3uY-11" value="" style="edgeStyle=orthogonalEdgeStyle;rounded=0;orthogonalLoop=1;jettySize=auto;html=1;endArrow=block;endFill=0;" edge="1" parent="WIyWlLk6GJQsqaUBKTNV-1" source="06q5QGeV-AQgwvZja3uY-9" target="WIyWlLk6GJQsqaUBKTNV-11">
          <mxGeometry relative="1" as="geometry" />
        </mxCell>
        <mxCell id="06q5QGeV-AQgwvZja3uY-9" value="返回数据给前端" style="rounded=1;whiteSpace=wrap;html=1;fontSize=12;glass=0;strokeWidth=1;shadow=0;" vertex="1" parent="WIyWlLk6GJQsqaUBKTNV-1">
          <mxGeometry x="160" y="340" width="120" height="40" as="geometry" />
        </mxCell>
        <mxCell id="06q5QGeV-AQgwvZja3uY-15" style="edgeStyle=orthogonalEdgeStyle;rounded=0;orthogonalLoop=1;jettySize=auto;html=1;entryX=1;entryY=0.75;entryDx=0;entryDy=0;endArrow=block;endFill=0;" edge="1" parent="WIyWlLk6GJQsqaUBKTNV-1" source="06q5QGeV-AQgwvZja3uY-12" target="06q5QGeV-AQgwvZja3uY-9">
          <mxGeometry relative="1" as="geometry">
            <Array as="points">
              <mxPoint x="610" y="370" />
            </Array>
          </mxGeometry>
        </mxCell>
        <mxCell id="06q5QGeV-AQgwvZja3uY-12" value="获取监控告警数据" style="rounded=1;whiteSpace=wrap;html=1;fontSize=12;glass=0;strokeWidth=1;shadow=0;" vertex="1" parent="WIyWlLk6GJQsqaUBKTNV-1">
          <mxGeometry x="550" y="230" width="120" height="40" as="geometry" />
        </mxCell>
        <mxCell id="06q5QGeV-AQgwvZja3uY-34" style="edgeStyle=orthogonalEdgeStyle;rounded=0;orthogonalLoop=1;jettySize=auto;html=1;entryX=0.5;entryY=0;entryDx=0;entryDy=0;endArrow=block;endFill=0;exitX=0.25;exitY=1;exitDx=0;exitDy=0;" edge="1" parent="WIyWlLk6GJQsqaUBKTNV-1" source="06q5QGeV-AQgwvZja3uY-16" target="06q5QGeV-AQgwvZja3uY-32">
          <mxGeometry relative="1" as="geometry">
            <Array as="points">
              <mxPoint x="261" y="701" />
              <mxPoint x="125" y="701" />
            </Array>
          </mxGeometry>
        </mxCell>
        <mxCell id="06q5QGeV-AQgwvZja3uY-36" style="edgeStyle=orthogonalEdgeStyle;rounded=0;orthogonalLoop=1;jettySize=auto;html=1;entryX=0.5;entryY=0;entryDx=0;entryDy=0;endArrow=block;endFill=0;exitX=0.75;exitY=1;exitDx=0;exitDy=0;" edge="1" parent="WIyWlLk6GJQsqaUBKTNV-1" source="06q5QGeV-AQgwvZja3uY-16" target="06q5QGeV-AQgwvZja3uY-33">
          <mxGeometry relative="1" as="geometry">
            <Array as="points">
              <mxPoint x="321" y="701" />
              <mxPoint x="457" y="701" />
            </Array>
          </mxGeometry>
        </mxCell>
        <mxCell id="06q5QGeV-AQgwvZja3uY-16" value="代码每日定时巡检" style="rounded=1;whiteSpace=wrap;html=1;fontSize=12;glass=0;strokeWidth=1;shadow=0;" vertex="1" parent="WIyWlLk6GJQsqaUBKTNV-1">
          <mxGeometry x="231" y="641" width="120" height="40" as="geometry" />
        </mxCell>
        <mxCell id="06q5QGeV-AQgwvZja3uY-23" value="" style="edgeStyle=orthogonalEdgeStyle;rounded=0;orthogonalLoop=1;jettySize=auto;html=1;endArrow=block;endFill=0;" edge="1" parent="WIyWlLk6GJQsqaUBKTNV-1" source="06q5QGeV-AQgwvZja3uY-21" target="06q5QGeV-AQgwvZja3uY-16">
          <mxGeometry relative="1" as="geometry" />
        </mxCell>
        <mxCell id="06q5QGeV-AQgwvZja3uY-21" value="启动巡检程序" style="rounded=1;whiteSpace=wrap;html=1;fontSize=12;glass=0;strokeWidth=1;shadow=0;" vertex="1" parent="WIyWlLk6GJQsqaUBKTNV-1">
          <mxGeometry x="231" y="563" width="120" height="40" as="geometry" />
        </mxCell>
        <mxCell id="06q5QGeV-AQgwvZja3uY-46" style="edgeStyle=orthogonalEdgeStyle;rounded=0;orthogonalLoop=1;jettySize=auto;html=1;endArrow=none;endFill=0;" edge="1" parent="WIyWlLk6GJQsqaUBKTNV-1" source="06q5QGeV-AQgwvZja3uY-24">
          <mxGeometry relative="1" as="geometry">
            <mxPoint x="291" y="828" as="targetPoint" />
          </mxGeometry>
        </mxCell>
        <mxCell id="06q5QGeV-AQgwvZja3uY-24" value="esxi的api接口模块获取虚拟化信息" style="rounded=1;whiteSpace=wrap;html=1;fontSize=12;glass=0;strokeWidth=1;shadow=0;" vertex="1" parent="WIyWlLk6GJQsqaUBKTNV-1">
          <mxGeometry x="231" y="719" width="120" height="40" as="geometry" />
        </mxCell>
        <mxCell id="06q5QGeV-AQgwvZja3uY-26" value="结束" style="rounded=1;whiteSpace=wrap;html=1;fontSize=12;glass=0;strokeWidth=1;shadow=0;" vertex="1" parent="WIyWlLk6GJQsqaUBKTNV-1">
          <mxGeometry x="225" y="1018" width="120" height="40" as="geometry" />
        </mxCell>
        <mxCell id="06q5QGeV-AQgwvZja3uY-45" style="edgeStyle=orthogonalEdgeStyle;rounded=0;orthogonalLoop=1;jettySize=auto;html=1;endArrow=none;endFill=0;" edge="1" parent="WIyWlLk6GJQsqaUBKTNV-1" source="06q5QGeV-AQgwvZja3uY-32">
          <mxGeometry relative="1" as="geometry">
            <mxPoint x="262" y="827" as="targetPoint" />
            <Array as="points">
              <mxPoint x="125" y="793" />
              <mxPoint x="262" y="793" />
            </Array>
          </mxGeometry>
        </mxCell>
        <mxCell id="06q5QGeV-AQgwvZja3uY-32" value="snmp协议获取&lt;br&gt;网络设备信息" style="rounded=1;whiteSpace=wrap;html=1;fontSize=12;glass=0;strokeWidth=1;shadow=0;" vertex="1" parent="WIyWlLk6GJQsqaUBKTNV-1">
          <mxGeometry x="65" y="719" width="120" height="40" as="geometry" />
        </mxCell>
        <mxCell id="06q5QGeV-AQgwvZja3uY-47" style="edgeStyle=orthogonalEdgeStyle;rounded=0;orthogonalLoop=1;jettySize=auto;html=1;endArrow=none;endFill=0;" edge="1" parent="WIyWlLk6GJQsqaUBKTNV-1" source="06q5QGeV-AQgwvZja3uY-33">
          <mxGeometry relative="1" as="geometry">
            <mxPoint x="320" y="829" as="targetPoint" />
            <Array as="points">
              <mxPoint x="457" y="792" />
              <mxPoint x="320" y="792" />
            </Array>
          </mxGeometry>
        </mxCell>
        <mxCell id="06q5QGeV-AQgwvZja3uY-33" value="ssh协议获取&lt;br&gt;linux系统信息" style="rounded=1;whiteSpace=wrap;html=1;fontSize=12;glass=0;strokeWidth=1;shadow=0;" vertex="1" parent="WIyWlLk6GJQsqaUBKTNV-1">
          <mxGeometry x="397" y="719" width="120" height="40" as="geometry" />
        </mxCell>
        <mxCell id="06q5QGeV-AQgwvZja3uY-37" value="windows系统&lt;br&gt;信息获取待定" style="rounded=1;whiteSpace=wrap;html=1;fontSize=12;glass=0;strokeWidth=1;shadow=0;" vertex="1" parent="WIyWlLk6GJQsqaUBKTNV-1">
          <mxGeometry x="562" y="719" width="120" height="40" as="geometry" />
        </mxCell>
        <mxCell id="06q5QGeV-AQgwvZja3uY-50" style="edgeStyle=orthogonalEdgeStyle;rounded=0;orthogonalLoop=1;jettySize=auto;html=1;entryX=0.5;entryY=0;entryDx=0;entryDy=0;endArrow=block;endFill=0;" edge="1" parent="WIyWlLk6GJQsqaUBKTNV-1" source="06q5QGeV-AQgwvZja3uY-38" target="06q5QGeV-AQgwvZja3uY-26">
          <mxGeometry relative="1" as="geometry" />
        </mxCell>
        <mxCell id="06q5QGeV-AQgwvZja3uY-38" value="存入数据库" style="rounded=1;whiteSpace=wrap;html=1;fontSize=12;glass=0;strokeWidth=1;shadow=0;" vertex="1" parent="WIyWlLk6GJQsqaUBKTNV-1">
          <mxGeometry x="144.5" y="898" width="120" height="40" as="geometry" />
        </mxCell>
        <mxCell id="06q5QGeV-AQgwvZja3uY-51" style="edgeStyle=orthogonalEdgeStyle;rounded=0;orthogonalLoop=1;jettySize=auto;html=1;endArrow=block;endFill=0;" edge="1" parent="WIyWlLk6GJQsqaUBKTNV-1" source="06q5QGeV-AQgwvZja3uY-39">
          <mxGeometry relative="1" as="geometry">
            <mxPoint x="285.1034482758621" y="1017.9310344827586" as="targetPoint" />
            <Array as="points">
              <mxPoint x="378" y="978" />
              <mxPoint x="285" y="978" />
            </Array>
          </mxGeometry>
        </mxCell>
        <mxCell id="06q5QGeV-AQgwvZja3uY-39" value="写入生成excel报表" style="rounded=1;whiteSpace=wrap;html=1;fontSize=12;glass=0;strokeWidth=1;shadow=0;" vertex="1" parent="WIyWlLk6GJQsqaUBKTNV-1">
          <mxGeometry x="317.5" y="898" width="120" height="40" as="geometry" />
        </mxCell>
        <mxCell id="06q5QGeV-AQgwvZja3uY-43" value="" style="endArrow=none;html=1;rounded=0;" edge="1" parent="WIyWlLk6GJQsqaUBKTNV-1">
          <mxGeometry width="50" height="50" relative="1" as="geometry">
            <mxPoint x="260.5" y="828" as="sourcePoint" />
            <mxPoint x="321.5" y="828" as="targetPoint" />
          </mxGeometry>
        </mxCell>
        <mxCell id="06q5QGeV-AQgwvZja3uY-48" style="edgeStyle=orthogonalEdgeStyle;rounded=0;orthogonalLoop=1;jettySize=auto;html=1;endArrow=block;endFill=0;entryX=0.5;entryY=0;entryDx=0;entryDy=0;" edge="1" parent="WIyWlLk6GJQsqaUBKTNV-1" target="06q5QGeV-AQgwvZja3uY-38">
          <mxGeometry relative="1" as="geometry">
            <mxPoint x="198" y="877" as="targetPoint" />
            <mxPoint x="291" y="829" as="sourcePoint" />
            <Array as="points">
              <mxPoint x="291" y="843" />
              <mxPoint x="205" y="843" />
            </Array>
          </mxGeometry>
        </mxCell>
        <mxCell id="06q5QGeV-AQgwvZja3uY-49" style="edgeStyle=orthogonalEdgeStyle;rounded=0;orthogonalLoop=1;jettySize=auto;html=1;endArrow=block;endFill=0;entryX=0.5;entryY=0;entryDx=0;entryDy=0;" edge="1" parent="WIyWlLk6GJQsqaUBKTNV-1" target="06q5QGeV-AQgwvZja3uY-39">
          <mxGeometry relative="1" as="geometry">
            <mxPoint x="214.5" y="908" as="targetPoint" />
            <mxPoint x="291" y="828" as="sourcePoint" />
            <Array as="points">
              <mxPoint x="291" y="843" />
              <mxPoint x="378" y="843" />
            </Array>
          </mxGeometry>
        </mxCell>
      </root>
    </mxGraphModel>
  </diagram>
</mxfile>
